{"title":"Fakta Saatvi Pass 2012 Marathi 1080p Untouched WebHD x264 [TMB]","uid":15533956,"size":2504929090,"categoryP":"video","categoryS":"movies","magnet":"?xt=urn:btih:c9717912a61619da9bf08ea03a7b21646252f432&amp;dn=Fakta+Saatvi+Pass+2012+Marathi+1080p+Untouched+WebHD+x264+%5BTMB%5D&amp;tr=udp%3A%2F%2Ftracker.leechers-paradise.org%3A6969&amp;tr=udp%3A%2F%2Fzer0day.ch%3A1337&amp;tr=udp%3A%2F%2Fopen.demonii.com%3A1337&amp;tr=udp%3A%2F%2Ftracker.coppersurfer.tk%3A6969&amp;tr=udp%3A%2F%2Fexodus.desync.com%3A6969","seeders":1,"leechers":0,"uploader":"Manoj_vb","files":1,"time":1470861525,"description":"http://i1306.photobucket.com/albums/s570/zyx55e/44_zpsc46e809d.gif\r\n \nhttps://s25.postimg.org/w6dtjxr7j/vlcsnap_1885_03_25_19h34m15s754.png\r\n \nhttps://s25.postimg.org/xzgq89ce7/vlcsnap_3076_08_05_01h08m32s067.png\r\n \nhttps://s25.postimg.org/8uppuucxr/vlcsnap_4206_05_10_13h59m52s775.png\r\n \nhttps://s25.postimg.org/wzv0qamm7/vlcsnap_4897_01_16_02h59m33s494.png\r\n \nhttps://s25.postimg.org/510uzfkzj/vlcsnap_5290_10_13_17h34m20s148.png\r\n \nhttps://s25.postimg.org/fp4ly9uyn/vlcsnap_5666_12_15_23h05m20s063.png\r\n \nhttps://s25.postimg.org/ja0hhhzi7/vlcsnap_6461_09_04_19h12m08s518.png\r\n \nhttps://s25.postimg.org/muwd0q41r/vlcsnap_6722_05_25_02h51m16s414.png\r\n \nhttps://s25.postimg.org/skcll1a7z/vlcsnap_7411_12_20_00h39m05s812.png\r\n \nhttp://i1306.photobucket.com/albums/s570/zyx55e/oie_11162011MOJeDGQI_zpsc25b2b81.gif\r\n\r\nGeneral\r\nComplete name               : Fakta Saatvi Pass 2012 1080p Untouched WebHD x264 AAC [TMB].mp4\r\nFormat                      : MPEG-4\r\nFormat profile              : Base Media\r\nCodec ID                    : isom (isom/iso2/avc1/mp41)\r\nFile size                   : 2.33 GiB\r\nDuration                    : 2h 10mn\r\nOverall bit rate mode       : Variable\r\nOverall bit rate            : 2 564 Kbps\r\n\r\nVideo\r\nFormat                      : AVC\r\nFormat/Info                 : Advanced Video Codec\r\nFormat profile              :   \r\nFormat settings, CABAC      : Yes\r\nFormat settings, ReFrames   : 3 frames\r\nCodec ID                    : avc1\r\nCodec ID/Info               : Advanced Video Coding\r\nDuration                    : 2h 10mn\r\nBit rate                    : 2 435 Kbps\r\nWidth                       : 1 920 pixels\r\nHeight                      : 1 080 pixels\r\nDisplay aspect ratio        : 16:9\r\nFrame rate mode             : Constant\r\nFrame rate                  : 25.000 fps\r\nColor space                 : YUV\r\nChroma subsampling          : 4:2:0\r\nBit depth                   : 8 bits\r\nScan type                   : Progressive\r\nBits/(Pixel*Frame)          : 0.047\r\nStream size                 : 2.22 GiB (95%)\r\n\r\nAudio\r\nFormat                      : AAC\r\nFormat/Info                 : Advanced Audio Codec\r\nFormat profile              : LC\r\nCodec ID                    : 40\r\nDuration                    : 2h 10mn\r\nBit rate mode               : Variable\r\nBit rate                    : 126 Kbps\r\nChannel(s)                  : 2 channels\r\nChannel positions           : Front: L R\r\nSampling rate               : 44.1 KHz\r\nFrame rate                  : 43.066 fps (1024 spf)\r\nCompression mode            : Lossy\r\nStream size                 : 117 MiB (5%)\r\n\r\nUploaded &amp; Shared by Manojvb\r\n\r\nSeeding 24x7... Extreme Seeding...\r\n\r\n \nhttp://i1306.photobucket.com/albums/s570/zyx55e/oie_1117625zVIGKvnK_zpsc8b6e055.gif","torrent":{"xt":"urn:btih:c9717912a61619da9bf08ea03a7b21646252f432","amp;dn":"Fakta+Saatvi+Pass+2012+Marathi+1080p+Untouched+WebHD+x264+%5BTMB%5D","amp;tr":["udp%3A%2F%2Ftracker.leechers-paradise.org%3A6969","udp%3A%2F%2Fzer0day.ch%3A1337","udp%3A%2F%2Fopen.demonii.com%3A1337","udp%3A%2F%2Ftracker.coppersurfer.tk%3A6969","udp%3A%2F%2Fexodus.desync.com%3A6969"],"infoHash":"c9717912a61619da9bf08ea03a7b21646252f432","infoHashBuffer":{"type":"Buffer","data":[201,113,121,18,166,22,25,218,155,240,142,160,58,123,33,100,98,82,244,50]},"announce":[],"urlList":[]}}